<mxfile host="app.diagrams.net" modified="2024-03-04T21:07:28.746Z" agent="Mozilla/5.0 (Windows NT 10.0; Win64; x64) AppleWebKit/537.36 (KHTML, like Gecko) Chrome/121.0.0.0 Safari/537.36 OPR/107.0.0.0 (Edition Yx 08)" etag="FwdlRRQ8puoCBvr23hzp" version="24.0.1" type="device">
  <diagram name="Страница — 1" id="h3Zj_za7DZhZ4qoWitme">
    <mxGraphModel dx="1875" dy="1775" grid="1" gridSize="10" guides="1" tooltips="1" connect="1" arrows="1" fold="1" page="1" pageScale="1" pageWidth="827" pageHeight="1169" math="0" shadow="0">
      <root>
        <mxCell id="0" />
        <mxCell id="1" parent="0" />
        <mxCell id="FqfnRDdDCg9e_Ic1tB9_-1" value="Пользователь&lt;div&gt;&lt;br/&gt;&lt;/div&gt;" style="shape=umlActor;verticalLabelPosition=bottom;verticalAlign=top;html=1;outlineConnect=0;" parent="1" vertex="1">
          <mxGeometry x="200" y="10" width="30" height="60" as="geometry" />
        </mxCell>
        <mxCell id="FqfnRDdDCg9e_Ic1tB9_-12" style="edgeStyle=orthogonalEdgeStyle;rounded=0;orthogonalLoop=1;jettySize=auto;html=1;endArrow=block;endFill=0;endSize=14;" parent="1" source="FqfnRDdDCg9e_Ic1tB9_-2" edge="1">
          <mxGeometry relative="1" as="geometry">
            <mxPoint x="215" y="520" as="targetPoint" />
          </mxGeometry>
        </mxCell>
        <mxCell id="FqfnRDdDCg9e_Ic1tB9_-2" value="Администратор" style="shape=umlActor;verticalLabelPosition=bottom;verticalAlign=top;html=1;outlineConnect=0;" parent="1" vertex="1">
          <mxGeometry x="200" y="640" width="30" height="60" as="geometry" />
        </mxCell>
        <mxCell id="FqfnRDdDCg9e_Ic1tB9_-11" style="edgeStyle=orthogonalEdgeStyle;rounded=0;orthogonalLoop=1;jettySize=auto;html=1;endArrow=block;endFill=0;endSize=14;" parent="1" source="FqfnRDdDCg9e_Ic1tB9_-4" edge="1">
          <mxGeometry relative="1" as="geometry">
            <mxPoint x="215" y="310" as="targetPoint" />
          </mxGeometry>
        </mxCell>
        <mxCell id="FqfnRDdDCg9e_Ic1tB9_-4" value="Деканат" style="shape=umlActor;verticalLabelPosition=bottom;verticalAlign=top;html=1;outlineConnect=0;" parent="1" vertex="1">
          <mxGeometry x="200" y="430" width="30" height="60" as="geometry" />
        </mxCell>
        <mxCell id="FqfnRDdDCg9e_Ic1tB9_-14" style="edgeStyle=orthogonalEdgeStyle;rounded=0;orthogonalLoop=1;jettySize=auto;html=1;endArrow=block;endFill=0;endSize=14;" parent="1" source="FqfnRDdDCg9e_Ic1tB9_-13" edge="1">
          <mxGeometry relative="1" as="geometry">
            <mxPoint x="215" y="90" as="targetPoint" />
          </mxGeometry>
        </mxCell>
        <mxCell id="FqfnRDdDCg9e_Ic1tB9_-13" value="Студент" style="shape=umlActor;verticalLabelPosition=bottom;verticalAlign=top;html=1;outlineConnect=0;" parent="1" vertex="1">
          <mxGeometry x="200" y="230" width="30" height="60" as="geometry" />
        </mxCell>
        <mxCell id="FqfnRDdDCg9e_Ic1tB9_-16" style="edgeStyle=orthogonalEdgeStyle;rounded=0;orthogonalLoop=1;jettySize=auto;html=1;endArrow=none;endFill=0;" parent="1" source="FqfnRDdDCg9e_Ic1tB9_-15" edge="1">
          <mxGeometry relative="1" as="geometry">
            <mxPoint x="190" y="50" as="targetPoint" />
          </mxGeometry>
        </mxCell>
        <mxCell id="FqfnRDdDCg9e_Ic1tB9_-19" style="edgeStyle=orthogonalEdgeStyle;rounded=0;orthogonalLoop=1;jettySize=auto;html=1;endArrow=none;endFill=0;" parent="1" source="FqfnRDdDCg9e_Ic1tB9_-15" edge="1">
          <mxGeometry relative="1" as="geometry">
            <mxPoint x="-230" y="50" as="targetPoint" />
          </mxGeometry>
        </mxCell>
        <mxCell id="FqfnRDdDCg9e_Ic1tB9_-23" value="&amp;lt;&amp;lt;Include&amp;gt;&amp;gt;" style="edgeLabel;html=1;align=center;verticalAlign=middle;resizable=0;points=[];" parent="FqfnRDdDCg9e_Ic1tB9_-19" vertex="1" connectable="0">
          <mxGeometry x="-0.0096" y="-6" relative="1" as="geometry">
            <mxPoint x="4" y="-5" as="offset" />
          </mxGeometry>
        </mxCell>
        <mxCell id="FqfnRDdDCg9e_Ic1tB9_-15" value="Create/Delete заявка" style="ellipse;whiteSpace=wrap;html=1;" parent="1" vertex="1">
          <mxGeometry x="-70" y="10" width="120" height="80" as="geometry" />
        </mxCell>
        <mxCell id="FqfnRDdDCg9e_Ic1tB9_-18" style="edgeStyle=orthogonalEdgeStyle;rounded=0;orthogonalLoop=1;jettySize=auto;html=1;endArrow=none;endFill=0;" parent="1" source="FqfnRDdDCg9e_Ic1tB9_-17" edge="1">
          <mxGeometry relative="1" as="geometry">
            <mxPoint x="190" y="460" as="targetPoint" />
          </mxGeometry>
        </mxCell>
        <mxCell id="FqfnRDdDCg9e_Ic1tB9_-17" value="Принять/Отклонить&lt;br&gt;заявку" style="ellipse;whiteSpace=wrap;html=1;" parent="1" vertex="1">
          <mxGeometry x="-80" y="420" width="120" height="80" as="geometry" />
        </mxCell>
        <mxCell id="FqfnRDdDCg9e_Ic1tB9_-20" value="" style="endArrow=none;html=1;rounded=0;" parent="1" edge="1">
          <mxGeometry width="50" height="50" relative="1" as="geometry">
            <mxPoint x="-140" y="150" as="sourcePoint" />
            <mxPoint x="-60" y="70" as="targetPoint" />
          </mxGeometry>
        </mxCell>
        <mxCell id="FqfnRDdDCg9e_Ic1tB9_-24" value="&amp;lt;&amp;lt;Include&amp;gt;&amp;gt;" style="edgeLabel;html=1;align=center;verticalAlign=middle;resizable=0;points=[];" parent="FqfnRDdDCg9e_Ic1tB9_-20" vertex="1" connectable="0">
          <mxGeometry x="-0.075" relative="1" as="geometry">
            <mxPoint as="offset" />
          </mxGeometry>
        </mxCell>
        <mxCell id="FqfnRDdDCg9e_Ic1tB9_-21" value="Выбрать ключ" style="ellipse;whiteSpace=wrap;html=1;" parent="1" vertex="1">
          <mxGeometry x="-350" y="10" width="120" height="80" as="geometry" />
        </mxCell>
        <mxCell id="FqfnRDdDCg9e_Ic1tB9_-22" value="Выбрать ячейку расписания" style="ellipse;whiteSpace=wrap;html=1;" parent="1" vertex="1">
          <mxGeometry x="-250" y="130" width="120" height="80" as="geometry" />
        </mxCell>
        <mxCell id="FqfnRDdDCg9e_Ic1tB9_-26" value="Преподаватель" style="shape=umlActor;verticalLabelPosition=bottom;verticalAlign=top;html=1;outlineConnect=0;" parent="1" vertex="1">
          <mxGeometry x="40" y="230" width="30" height="60" as="geometry" />
        </mxCell>
        <mxCell id="FqfnRDdDCg9e_Ic1tB9_-30" value="Если одновременно&amp;nbsp;&lt;br&gt;встречаются заявки на одну ячейку расписания от Преподавателя и Студента, то заявка от Студента отклоняется автоматически&amp;nbsp;" style="shape=note;size=20;whiteSpace=wrap;html=1;" parent="1" vertex="1">
          <mxGeometry x="-170" y="290" width="170" height="120" as="geometry" />
        </mxCell>
        <mxCell id="FqfnRDdDCg9e_Ic1tB9_-32" value="Передать/Принять ключ" style="ellipse;whiteSpace=wrap;html=1;" parent="1" vertex="1">
          <mxGeometry x="414" y="10" width="120" height="80" as="geometry" />
        </mxCell>
        <mxCell id="FqfnRDdDCg9e_Ic1tB9_-33" style="edgeStyle=orthogonalEdgeStyle;rounded=0;orthogonalLoop=1;jettySize=auto;html=1;entryX=-0.038;entryY=0.386;entryDx=0;entryDy=0;entryPerimeter=0;endArrow=none;endFill=0;" parent="1" source="FqfnRDdDCg9e_Ic1tB9_-1" target="FqfnRDdDCg9e_Ic1tB9_-32" edge="1">
          <mxGeometry relative="1" as="geometry" />
        </mxCell>
        <mxCell id="FqfnRDdDCg9e_Ic1tB9_-35" style="edgeStyle=orthogonalEdgeStyle;rounded=0;orthogonalLoop=1;jettySize=auto;html=1;entryX=1;entryY=0.5;entryDx=0;entryDy=0;endArrow=none;endFill=0;dashed=1;" parent="1" source="FqfnRDdDCg9e_Ic1tB9_-34" target="FqfnRDdDCg9e_Ic1tB9_-32" edge="1">
          <mxGeometry relative="1" as="geometry" />
        </mxCell>
        <mxCell id="FqfnRDdDCg9e_Ic1tB9_-34" value="Чтобы передать ключ следующему владельцу необходимо двойное подтверждение от получателя и нынешнего владельца" style="shape=note;size=20;whiteSpace=wrap;html=1;" parent="1" vertex="1">
          <mxGeometry x="490" y="140" width="160" height="120" as="geometry" />
        </mxCell>
        <mxCell id="7gna2Fg1l08d1-8sa88C-1" value="Выбрать владельца ключа" style="ellipse;whiteSpace=wrap;html=1;" vertex="1" parent="1">
          <mxGeometry x="-280" y="-140" width="120" height="80" as="geometry" />
        </mxCell>
        <mxCell id="7gna2Fg1l08d1-8sa88C-5" value="" style="endArrow=none;html=1;rounded=0;exitX=1;exitY=1;exitDx=0;exitDy=0;" edge="1" parent="1" source="7gna2Fg1l08d1-8sa88C-1" target="FqfnRDdDCg9e_Ic1tB9_-15">
          <mxGeometry width="50" height="50" relative="1" as="geometry">
            <mxPoint x="-140" y="-30" as="sourcePoint" />
            <mxPoint x="-90" y="-80" as="targetPoint" />
          </mxGeometry>
        </mxCell>
        <mxCell id="7gna2Fg1l08d1-8sa88C-6" value="&amp;lt;&amp;lt;include&amp;gt;&amp;gt;" style="edgeLabel;html=1;align=center;verticalAlign=middle;resizable=0;points=[];" vertex="1" connectable="0" parent="7gna2Fg1l08d1-8sa88C-5">
          <mxGeometry x="0.032" y="3" relative="1" as="geometry">
            <mxPoint x="-10" y="-3" as="offset" />
          </mxGeometry>
        </mxCell>
        <mxCell id="7gna2Fg1l08d1-8sa88C-7" value="" style="endArrow=block;html=1;rounded=0;startArrow=none;startFill=0;endFill=0;startSize=9;endSize=15;" edge="1" parent="1" source="FqfnRDdDCg9e_Ic1tB9_-4">
          <mxGeometry width="50" height="50" relative="1" as="geometry">
            <mxPoint x="150" y="410" as="sourcePoint" />
            <mxPoint x="90" y="310" as="targetPoint" />
          </mxGeometry>
        </mxCell>
        <mxCell id="7gna2Fg1l08d1-8sa88C-9" value="Изменить роль пользователя&lt;div&gt;(на студента)&lt;/div&gt;" style="ellipse;whiteSpace=wrap;html=1;" vertex="1" parent="1">
          <mxGeometry x="-5" y="120" width="120" height="80" as="geometry" />
        </mxCell>
        <mxCell id="7gna2Fg1l08d1-8sa88C-10" style="edgeStyle=orthogonalEdgeStyle;rounded=0;orthogonalLoop=1;jettySize=auto;html=1;entryX=0.5;entryY=0;entryDx=0;entryDy=0;entryPerimeter=0;endArrow=none;endFill=0;" edge="1" parent="1" source="7gna2Fg1l08d1-8sa88C-9" target="FqfnRDdDCg9e_Ic1tB9_-26">
          <mxGeometry relative="1" as="geometry" />
        </mxCell>
        <mxCell id="7gna2Fg1l08d1-8sa88C-11" value="Изменить роль пользователя&lt;div&gt;(на студента/преподавателя)&lt;/div&gt;" style="ellipse;whiteSpace=wrap;html=1;" vertex="1" parent="1">
          <mxGeometry x="380" y="420" width="120" height="80" as="geometry" />
        </mxCell>
        <mxCell id="7gna2Fg1l08d1-8sa88C-12" value="" style="endArrow=none;html=1;rounded=0;entryX=0;entryY=0.5;entryDx=0;entryDy=0;" edge="1" parent="1" target="7gna2Fg1l08d1-8sa88C-11">
          <mxGeometry width="50" height="50" relative="1" as="geometry">
            <mxPoint x="240" y="460" as="sourcePoint" />
            <mxPoint x="330" y="440" as="targetPoint" />
          </mxGeometry>
        </mxCell>
        <mxCell id="7gna2Fg1l08d1-8sa88C-13" value="Изменить роль пользователя&lt;div&gt;(на студента/преподавателя/ члена деканата)&lt;/div&gt;" style="ellipse;whiteSpace=wrap;html=1;" vertex="1" parent="1">
          <mxGeometry x="346" y="625" width="136" height="90" as="geometry" />
        </mxCell>
        <mxCell id="7gna2Fg1l08d1-8sa88C-14" value="" style="endArrow=none;html=1;rounded=0;entryX=0;entryY=0.5;entryDx=0;entryDy=0;" edge="1" parent="1" target="7gna2Fg1l08d1-8sa88C-13">
          <mxGeometry width="50" height="50" relative="1" as="geometry">
            <mxPoint x="230" y="670" as="sourcePoint" />
            <mxPoint x="340" y="670" as="targetPoint" />
          </mxGeometry>
        </mxCell>
      </root>
    </mxGraphModel>
  </diagram>
</mxfile>
